<svg width="34" height="24" viewBox="0 0 34 24" fill="none" xmlns="http://www.w3.org/2000/svg">
<path d="M13.5 10.5V14.5M15.75 10.5V14.5M18.25 10.5V14.5M20.5 10.5V14.5M12.5 15.3L12.5 15.7C12.5 15.98 12.5 16.12 12.5545 16.227C12.6024 16.3211 12.6789 16.3976 12.773 16.4455C12.88 16.5 13.02 16.5 13.3 16.5H20.7C20.98 16.5 21.12 16.5 21.227 16.4455C21.3211 16.3976 21.3976 16.3211 21.4455 16.227C21.5 16.12 21.5 15.98 21.5 15.7V15.3C21.5 15.02 21.5 14.88 21.4455 14.773C21.3976 14.6789 21.3211 14.6024 21.227 14.5545C21.12 14.5 20.98 14.5 20.7 14.5H13.3C13.02 14.5 12.88 14.5 12.773 14.5545C12.6789 14.6024 12.6024 14.6789 12.5545 14.773C12.5 14.88 12.5 15.02 12.5 15.3ZM16.8265 7.53858L13.1265 8.3608C12.9029 8.41047 12.7912 8.43531 12.7077 8.49541C12.6341 8.54843 12.5764 8.62046 12.5406 8.70379C12.5 8.79827 12.5 8.91276 12.5 9.14175L12.5 9.70001C12.5 9.98004 12.5 10.12 12.5545 10.227C12.6024 10.3211 12.6789 10.3976 12.773 10.4455C12.88 10.5 13.02 10.5 13.3 10.5H20.7C20.98 10.5 21.12 10.5 21.227 10.4455C21.3211 10.3976 21.3976 10.3211 21.4455 10.227C21.5 10.12 21.5 9.98004 21.5 9.70001V9.14175C21.5 8.91276 21.5 8.79827 21.4594 8.70379C21.4236 8.62046 21.3659 8.54843 21.2923 8.49541C21.2088 8.43531 21.0971 8.41047 20.8735 8.3608L17.1735 7.53858C17.1088 7.52418 17.0764 7.51699 17.0437 7.51412C17.0146 7.51157 16.9854 7.51157 16.9563 7.51412C16.9236 7.51699 16.8912 7.52418 16.8265 7.53858Z" stroke="black" stroke-linecap="round" stroke-linejoin="round"/>
<rect x="0.5" y="0.5" width="33" height="23" rx="3.5" stroke="#F2F4F7"/>
</svg>
