<svg width="17" height="16" viewBox="0 0 17 16" fill="none" xmlns="http://www.w3.org/2000/svg">
<path d="M6.56946 14.0007C7.03955 14.4156 7.65705 14.6673 8.33335 14.6673C9.00964 14.6673 9.62714 14.4156 10.0972 14.0007M12.3333 5.33398C12.3333 4.27312 11.9119 3.2557 11.1618 2.50556C10.4116 1.75541 9.39421 1.33398 8.33335 1.33398C7.27248 1.33398 6.25506 1.75541 5.50492 2.50556C4.75477 3.2557 4.33335 4.27312 4.33335 5.33398C4.33335 7.39411 3.81366 8.80462 3.23312 9.73759C2.74343 10.5246 2.49858 10.9181 2.50756 11.0278C2.5175 11.1494 2.54325 11.1957 2.6412 11.2684C2.72965 11.334 3.12841 11.334 3.92592 11.334H12.7408C13.5383 11.334 13.937 11.334 14.0255 11.2684C14.1234 11.1957 14.1492 11.1494 14.1591 11.0278C14.1681 10.9181 13.9233 10.5246 13.4336 9.73759C12.853 8.80462 12.3333 7.39411 12.3333 5.33398Z" stroke="#0C111D" stroke-width="1.66667" stroke-linecap="round" stroke-linejoin="round"/>
</svg>
