<svg width="16" height="17" viewBox="0 0 16 17" fill="none" xmlns="http://www.w3.org/2000/svg">
<g clip-path="url(#clip0_1590_99)">
<path d="M5.99967 8.33317L7.33301 9.6665L10.333 6.6665M11.9338 3.66551C12.0711 3.99753 12.3346 4.26144 12.6664 4.39922L13.8298 4.88116C14.1619 5.01869 14.4257 5.2825 14.5632 5.61454C14.7007 5.94659 14.7007 6.31967 14.5632 6.65171L14.0816 7.81437C13.944 8.14656 13.9438 8.52002 14.0821 8.85205L14.5628 10.0144C14.631 10.1788 14.6661 10.3551 14.6661 10.5331C14.6661 10.7112 14.6311 10.8875 14.563 11.0519C14.4948 11.2164 14.395 11.3659 14.2691 11.4917C14.1432 11.6176 13.9937 11.7174 13.8292 11.7855L12.6666 12.2671C12.3346 12.4044 12.0707 12.6679 11.9329 12.9997L11.451 14.1632C11.3134 14.4952 11.0496 14.759 10.7176 14.8966C10.3856 15.0341 10.0125 15.0341 9.68048 14.8966L8.51786 14.415C8.18582 14.2778 7.81289 14.2781 7.48106 14.4158L6.3176 14.897C5.98576 15.0342 5.61301 15.0341 5.28125 14.8967C4.94949 14.7593 4.68584 14.4958 4.54822 14.1641L4.06615 13.0002C3.92888 12.6682 3.66537 12.4043 3.33357 12.2665L2.17012 11.7846C1.83823 11.6471 1.57451 11.3835 1.43693 11.0516C1.29935 10.7198 1.29916 10.3469 1.43641 10.0149L1.91798 8.8522C2.05518 8.52015 2.0549 8.14721 1.9172 7.81536L1.43632 6.65103C1.36814 6.48657 1.33304 6.31029 1.33301 6.13226C1.33298 5.95423 1.36803 5.77794 1.43616 5.61346C1.50428 5.44898 1.60415 5.29954 1.73005 5.17367C1.85596 5.04781 2.00542 4.94798 2.16992 4.87991L3.33254 4.39832C3.66426 4.26115 3.928 3.99797 4.06588 3.66654L4.5478 2.50304C4.68533 2.171 4.94913 1.90719 5.28116 1.76966C5.61319 1.63212 5.98625 1.63212 6.31828 1.76966L7.48091 2.25125C7.81295 2.38845 8.18588 2.38817 8.51771 2.25047L9.68166 1.7704C10.0136 1.63294 10.3866 1.63297 10.7186 1.77048C11.0506 1.90799 11.3143 2.17172 11.4519 2.50368L11.9339 3.66752L11.9338 3.66551Z" stroke="#0C111D" stroke-width="1.66667" stroke-linecap="round" stroke-linejoin="round"/>
</g>
<defs>
<clipPath id="clip0_1590_99">
<rect width="16" height="16" fill="white" transform="translate(0 0.333252)"/>
</clipPath>
</defs>
</svg>
