<svg width="16" height="16" viewBox="0 0 16 16" fill="none" xmlns="http://www.w3.org/2000/svg">
<path d="M8.00016 8.6665C8.36835 8.6665 8.66683 8.36803 8.66683 7.99984C8.66683 7.63165 8.36835 7.33317 8.00016 7.33317C7.63197 7.33317 7.3335 7.63165 7.3335 7.99984C7.3335 8.36803 7.63197 8.6665 8.00016 8.6665Z" stroke="#0C111D" stroke-width="1.66667" stroke-linecap="round" stroke-linejoin="round"/>
<path d="M8.00016 3.99984C8.36835 3.99984 8.66683 3.70136 8.66683 3.33317C8.66683 2.96498 8.36835 2.6665 8.00016 2.6665C7.63197 2.6665 7.3335 2.96498 7.3335 3.33317C7.3335 3.70136 7.63197 3.99984 8.00016 3.99984Z" stroke="#0C111D" stroke-width="1.66667" stroke-linecap="round" stroke-linejoin="round"/>
<path d="M8.00016 13.3332C8.36835 13.3332 8.66683 13.0347 8.66683 12.6665C8.66683 12.2983 8.36835 11.9998 8.00016 11.9998C7.63197 11.9998 7.3335 12.2983 7.3335 12.6665C7.3335 13.0347 7.63197 13.3332 8.00016 13.3332Z" stroke="#0C111D" stroke-width="1.66667" stroke-linecap="round" stroke-linejoin="round"/>
</svg>
