<svg width="37" height="36" viewBox="0 0 37 36" fill="none" xmlns="http://www.w3.org/2000/svg">
<path d="M33.6665 25.5V19.5C33.6665 11.2157 26.9508 4.5 18.6665 4.5C10.3822 4.5 3.6665 11.2157 3.6665 19.5V25.5M11.9165 31.5C9.84544 31.5 8.1665 29.8211 8.1665 27.75V23.25C8.1665 21.1789 9.84544 19.5 11.9165 19.5C13.9876 19.5 15.6665 21.1789 15.6665 23.25V27.75C15.6665 29.8211 13.9876 31.5 11.9165 31.5ZM25.4165 31.5C23.3454 31.5 21.6665 29.8211 21.6665 27.75V23.25C21.6665 21.1789 23.3454 19.5 25.4165 19.5C27.4876 19.5 29.1665 21.1789 29.1665 23.25V27.75C29.1665 29.8211 27.4876 31.5 25.4165 31.5Z" stroke="black" stroke-width="2" stroke-linecap="round" stroke-linejoin="round"/>
</svg>
