<svg width="16" height="16" viewBox="0 0 16 16" fill="none" xmlns="http://www.w3.org/2000/svg">
<g clip-path="url(#clip0_922_5193)">
<path d="M6.06014 6.00016C6.21688 5.5546 6.52624 5.17889 6.93344 4.93958C7.34064 4.70026 7.8194 4.61278 8.28492 4.69263C8.75044 4.77248 9.17268 5.01451 9.47686 5.37584C9.78103 5.73718 9.94751 6.1945 9.94681 6.66682C9.94681 8.00016 7.94681 8.66682 7.94681 8.66682M8.00016 11.3335H8.00683M1.3335 5.68199V10.3183C1.3335 10.4814 1.3335 10.5629 1.35192 10.6397C1.36825 10.7077 1.39518 10.7727 1.43174 10.8324C1.47296 10.8996 1.53061 10.9573 1.64592 11.0726L4.92774 14.3544C5.04304 14.4697 5.1007 14.5274 5.16797 14.5686C5.22762 14.6051 5.29265 14.6321 5.36067 14.6484C5.4374 14.6668 5.51893 14.6668 5.68199 14.6668H10.3183C10.4814 14.6668 10.5629 14.6668 10.6397 14.6484C10.7077 14.6321 10.7727 14.6051 10.8324 14.5686C10.8996 14.5274 10.9573 14.4697 11.0726 14.3544L14.3544 11.0726C14.4697 10.9573 14.5274 10.8996 14.5686 10.8324C14.6051 10.7727 14.6321 10.7077 14.6484 10.6397C14.6668 10.5629 14.6668 10.4814 14.6668 10.3183V5.68199C14.6668 5.51893 14.6668 5.4374 14.6484 5.36067C14.6321 5.29265 14.6051 5.22762 14.5686 5.16797C14.5274 5.1007 14.4697 5.04304 14.3544 4.92774L11.0726 1.64592C10.9573 1.53061 10.8996 1.47296 10.8324 1.43174C10.7727 1.39518 10.7077 1.36825 10.6397 1.35192C10.5629 1.3335 10.4814 1.3335 10.3183 1.3335H5.68199C5.51893 1.3335 5.4374 1.3335 5.36067 1.35192C5.29265 1.36825 5.22762 1.39518 5.16797 1.43174C5.1007 1.47296 5.04304 1.53061 4.92774 1.64592L1.64592 4.92774C1.53061 5.04304 1.47296 5.1007 1.43174 5.16797C1.39518 5.22762 1.36825 5.29265 1.35192 5.36067C1.3335 5.4374 1.3335 5.51893 1.3335 5.68199Z" stroke="#667085" stroke-width="1.66667" stroke-linecap="round" stroke-linejoin="round"/>
</g>
<defs>
<clipPath id="clip0_922_5193">
<rect width="16" height="16" fill="white"/>
</clipPath>
</defs>
</svg>
