<svg width="40" height="28" viewBox="0 0 40 28" fill="none" xmlns="http://www.w3.org/2000/svg">
<g clip-path="url(#clip0_468_18031)">
<path d="M32.6917 4.20877H13.0026L9.82549 0H6.51794C2.91749 0 -0.00146484 2.91262 -0.00146484 6.50528V17.2856C-0.00146484 20.8782 2.91749 23.7908 6.51794 23.7908H26.207L29.3841 27.9996H32.6917C36.2921 27.9996 39.2111 25.087 39.2111 21.4943V10.714C39.2111 7.12139 36.2921 4.20877 32.6917 4.20877ZM34.0168 20.7262C34.0168 21.8918 33.0697 22.8365 31.902 22.8365H27.0834L23.893 18.6277H7.30763C6.1395 18.6277 5.19282 17.6827 5.19282 16.5175V7.27377C5.19282 6.10817 6.1395 5.16354 7.30763 5.16354H12.1262L15.3166 9.3723H31.902C33.0701 9.3723 34.0168 10.3173 34.0168 11.4825V20.7262Z" fill="#0C111D"/>
</g>
<defs>
<clipPath id="clip0_468_18031">
<rect width="39.2125" height="28" fill="white"/>
</clipPath>
</defs>
</svg>
