<svg width="16" height="16" viewBox="0 0 16 16" fill="none" xmlns="http://www.w3.org/2000/svg">
<path d="M9.1628 1.75661L14.1815 5.01876C14.3588 5.13402 14.4475 5.19166 14.5117 5.26854C14.5686 5.33659 14.6113 5.41531 14.6374 5.50007C14.6668 5.59584 14.6668 5.70159 14.6668 5.9131V10.8009C14.6668 11.921 14.6668 12.4811 14.4488 12.9089C14.2571 13.2852 13.9511 13.5912 13.5748 13.7829C13.147 14.0009 12.5869 14.0009 11.4668 14.0009H4.5335C3.41339 14.0009 2.85334 14.0009 2.42552 13.7829C2.04919 13.5912 1.74323 13.2852 1.55148 12.9089C1.3335 12.4811 1.3335 11.921 1.3335 10.8009V5.9131C1.3335 5.70159 1.3335 5.59584 1.36294 5.50007C1.38901 5.41531 1.43173 5.33659 1.48859 5.26854C1.55284 5.19166 1.64151 5.13402 1.81884 5.01876L6.83752 1.75662M9.1628 1.75661C8.74198 1.48308 8.53156 1.34631 8.30485 1.29309C8.10445 1.24605 7.89588 1.24605 7.69548 1.29309C7.46876 1.34631 7.25835 1.48308 6.83752 1.75662M9.1628 1.75661L13.2909 4.43989C13.7495 4.73796 13.9788 4.88699 14.0582 5.07599C14.1276 5.24116 14.1276 5.4273 14.0582 5.59247C13.9788 5.78147 13.7495 5.9305 13.2909 6.22857L9.1628 8.91185C8.74198 9.18538 8.53156 9.32216 8.30485 9.37537C8.10445 9.42241 7.89588 9.42241 7.69548 9.37537C7.46876 9.32216 7.25835 9.18539 6.83752 8.91185L2.7094 6.22857C2.25084 5.9305 2.02156 5.78147 1.94215 5.59247C1.87275 5.4273 1.87275 5.24116 1.94215 5.07599C2.02156 4.88699 2.25084 4.73796 2.7094 4.43989L6.83752 1.75662M14.3335 12.6676L9.90495 8.66756M6.09538 8.66756L1.66683 12.6676" stroke="#00555B" stroke-width="1.66667" stroke-linecap="round" stroke-linejoin="round"/>
</svg>
