<svg width="32" height="33" viewBox="0 0 32 33" fill="none" xmlns="http://www.w3.org/2000/svg">
<path d="M7 7.6665L10 4.6665M10 4.6665L7 1.6665M10 4.6665H7C3.68629 4.6665 1 7.35279 1 10.6665M25 25.6665L22 28.6665M22 28.6665L25 31.6665M22 28.6665H25C28.3137 28.6665 31 25.9802 31 22.6665M18.1258 18.7923C19.2991 19.3527 20.6129 19.6665 22 19.6665C26.9706 19.6665 31 15.6371 31 10.6665C31 5.69594 26.9706 1.6665 22 1.6665C17.0294 1.6665 13 5.69594 13 10.6665C13 12.0536 13.3138 13.3674 13.8742 14.5407M19 22.6665C19 27.6371 14.9706 31.6665 10 31.6665C5.02944 31.6665 1 27.6371 1 22.6665C1 17.6959 5.02944 13.6665 10 13.6665C14.9706 13.6665 19 17.6959 19 22.6665Z" stroke="black" stroke-width="2" stroke-linecap="round" stroke-linejoin="round"/>
</svg>
