<svg width="16" height="16" viewBox="0 0 16 16" fill="none" xmlns="http://www.w3.org/2000/svg">
<g clip-path="url(#clip0_1590_4214)">
<path d="M9.3666 4.00065C10.0178 4.12769 10.6162 4.44616 11.0853 4.91527C11.5544 5.38439 11.8729 5.98283 11.9999 6.63398M9.3666 1.33398C10.7195 1.48428 11.981 2.0901 12.9441 3.05199C13.9072 4.01388 14.5146 5.27466 14.6666 6.62732M6.81792 9.2427C6.01687 8.44164 5.38435 7.53588 4.92035 6.56947C4.88044 6.48634 4.86048 6.44478 4.84515 6.39219C4.79067 6.20528 4.8298 5.97578 4.94314 5.81749C4.97504 5.77295 5.01314 5.73485 5.08935 5.65864C5.32242 5.42557 5.43895 5.30903 5.51514 5.19185C5.80247 4.74992 5.80247 4.1802 5.51515 3.73827C5.43895 3.62109 5.32242 3.50455 5.08935 3.27148L4.95943 3.14157C4.60514 2.78727 4.42799 2.61013 4.23774 2.5139C3.85937 2.32252 3.41252 2.32252 3.03415 2.5139C2.84389 2.61013 2.66675 2.78727 2.31245 3.14157L2.20736 3.24666C1.85428 3.59974 1.67774 3.77628 1.54291 4.0163C1.39329 4.28264 1.28572 4.6963 1.28663 5.00178C1.28745 5.27708 1.34085 5.46523 1.44765 5.84153C2.02163 7.86379 3.10462 9.77203 4.6966 11.364C6.28859 12.956 8.19683 14.039 10.2191 14.613C10.5954 14.7198 10.7835 14.7732 11.0588 14.774C11.3643 14.7749 11.778 14.6673 12.0443 14.5177C12.2843 14.3829 12.4609 14.2063 12.814 13.8533L12.9191 13.7482C13.2733 13.3939 13.4505 13.2167 13.5467 13.0265C13.7381 12.6481 13.7381 12.2013 13.5467 11.8229C13.4505 11.6326 13.2733 11.4555 12.9191 11.1012L12.7891 10.9713C12.5561 10.7382 12.4395 10.6217 12.3223 10.5455C11.8804 10.2581 11.3107 10.2581 10.8688 10.5455C10.7516 10.6217 10.6351 10.7382 10.402 10.9713C10.3258 11.0475 10.2877 11.0856 10.2431 11.1175C10.0848 11.2308 9.85534 11.27 9.66843 11.2155C9.61584 11.2001 9.57428 11.1802 9.49115 11.1403C8.52474 10.6763 7.61898 10.0437 6.81792 9.2427Z" stroke="#00555B" stroke-width="1.66667" stroke-linecap="round" stroke-linejoin="round"/>
</g>
<defs>
<clipPath id="clip0_1590_4214">
<rect width="16" height="16" fill="white"/>
</clipPath>
</defs>
</svg>
