<svg width="33" height="32" viewBox="0 0 33 32" fill="none" xmlns="http://www.w3.org/2000/svg">
<path d="M21.8024 25.0224C22.4456 27.423 21.021 29.8905 18.6204 30.5338C16.2198 31.177 13.7523 29.7524 13.109 27.3518M1.41875 15.4202C0.834505 13.3229 1.44207 11.0555 2.99667 9.53131M16.553 6.61152C17.0093 5.79057 17.1596 4.79832 16.8973 3.81942C16.3613 1.81892 14.305 0.63174 12.3045 1.16777C10.304 1.7038 9.11682 3.76007 9.65285 5.76057C9.91514 6.73946 10.5414 7.52362 11.3471 8.00642M28.812 8.08024C28.2694 5.97183 26.6095 4.31193 24.5011 3.76927M24.5694 12.1682C24.034 10.17 22.6046 8.49902 20.5957 7.52292C18.5868 6.54683 16.1629 6.34553 13.8573 6.96332C11.5517 7.58111 9.55322 8.96737 8.3015 10.8172C7.04978 12.6669 6.64736 14.8287 7.18278 16.8269C8.06864 20.133 7.89663 22.7706 7.33719 24.7748C6.6996 27.0591 6.3808 28.2012 6.46692 28.4305C6.56546 28.6929 6.63674 28.765 6.89809 28.8662C7.12652 28.9547 8.08618 28.6976 10.0055 28.1833L27.8031 23.4144C29.7224 22.9002 30.6821 22.643 30.8356 22.4522C31.0113 22.2338 31.0371 22.1358 30.9912 21.8593C30.9511 21.6176 30.104 20.7879 28.4097 19.1284C26.9231 17.6724 25.4553 15.4742 24.5694 12.1682Z" stroke="black" stroke-width="2" stroke-linecap="round" stroke-linejoin="round"/>
</svg>
