<svg width="16" height="12" viewBox="0 0 16 12" fill="none" xmlns="http://www.w3.org/2000/svg">
<path d="M3.99967 4.66634V7.33301M11.9997 4.66634V7.33301M1.33301 3.46634L1.33301 8.53301C1.33301 9.27974 1.33301 9.65311 1.47833 9.93833C1.60616 10.1892 1.81014 10.3932 2.06102 10.521C2.34624 10.6663 2.7196 10.6663 3.46634 10.6663L12.533 10.6663C13.2797 10.6663 13.6531 10.6663 13.9383 10.521C14.1892 10.3932 14.3932 10.1892 14.521 9.93833C14.6663 9.65311 14.6663 9.27974 14.6663 8.53301V3.46634C14.6663 2.71961 14.6663 2.34624 14.521 2.06102C14.3932 1.81014 14.1892 1.60616 13.9383 1.47833C13.6531 1.33301 13.2797 1.33301 12.533 1.33301L3.46634 1.33301C2.7196 1.33301 2.34624 1.33301 2.06102 1.47833C1.81014 1.60616 1.60616 1.81014 1.47833 2.06102C1.33301 2.34624 1.33301 2.7196 1.33301 3.46634ZM9.66634 5.99967C9.66634 6.92015 8.92015 7.66634 7.99967 7.66634C7.0792 7.66634 6.33301 6.92015 6.33301 5.99967C6.33301 5.0792 7.0792 4.33301 7.99967 4.33301C8.92015 4.33301 9.66634 5.0792 9.66634 5.99967Z" stroke="#0C111D" stroke-width="1.33333" stroke-linecap="round" stroke-linejoin="round"/>
</svg>
