<svg width="20" height="21" viewBox="0 0 20 21" fill="none" xmlns="http://www.w3.org/2000/svg">
<path d="M14 7.00007V3.50073C14 2.66899 14 2.25312 13.8248 1.99755C13.6717 1.77425 13.4346 1.62257 13.1678 1.57715C12.8623 1.52517 12.4847 1.69944 11.7295 2.04799L2.85901 6.14206C2.18551 6.45291 1.84875 6.60834 1.60211 6.84939C1.38406 7.06249 1.21762 7.32262 1.1155 7.6099C1 7.93486 1 8.30575 1 9.04754V14.0001M14.5 13.5001H14.51M1 10.2001L1 16.8001C1 17.9202 1 18.4802 1.21799 18.9081C1.40973 19.2844 1.71569 19.5903 2.09202 19.7821C2.51984 20.0001 3.07989 20.0001 4.2 20.0001H15.8C16.9201 20.0001 17.4802 20.0001 17.908 19.7821C18.2843 19.5903 18.5903 19.2844 18.782 18.9081C19 18.4802 19 17.9202 19 16.8001V10.2001C19 9.07997 19 8.51992 18.782 8.09209C18.5903 7.71577 18.2843 7.40981 17.908 7.21806C17.4802 7.00007 16.9201 7.00007 15.8 7.00007L4.2 7.00007C3.0799 7.00007 2.51984 7.00007 2.09202 7.21806C1.7157 7.40981 1.40973 7.71577 1.21799 8.09209C1 8.51991 1 9.07997 1 10.2001ZM15 13.5001C15 13.7762 14.7761 14.0001 14.5 14.0001C14.2239 14.0001 14 13.7762 14 13.5001C14 13.2239 14.2239 13.0001 14.5 13.0001C14.7761 13.0001 15 13.2239 15 13.5001Z" stroke="#0C111D" stroke-width="2" stroke-linecap="round" stroke-linejoin="round"/>
</svg>
