<svg width="32" height="30" viewBox="0 0 32 30" fill="none" xmlns="http://www.w3.org/2000/svg">
<path d="M25.0002 21.0886C27.1841 22.1856 29.0564 23.9462 30.4231 26.1477C30.6937 26.5837 30.8291 26.8016 30.8759 27.1035C30.9709 27.7169 30.5515 28.4711 29.9801 28.7138C29.699 28.8333 29.3828 28.8333 28.7502 28.8333M22.0002 14.6316C24.2228 13.5271 25.7502 11.2335 25.7502 8.58325C25.7502 5.93296 24.2228 3.63942 22.0002 2.53489M19.0002 8.58325C19.0002 12.3112 15.9782 15.3333 12.2502 15.3333C8.52232 15.3333 5.50024 12.3112 5.50024 8.58325C5.50024 4.85533 8.52232 1.83325 12.2502 1.83325C15.9782 1.83325 19.0002 4.85533 19.0002 8.58325ZM1.83909 25.7408C4.23055 22.1501 8.0043 19.8333 12.2502 19.8333C16.4962 19.8333 20.2699 22.1501 22.6614 25.7408C23.1853 26.5274 23.4473 26.9207 23.4171 27.4231C23.3936 27.8143 23.1372 28.2932 22.8246 28.5296C22.4231 28.8333 21.871 28.8333 20.7667 28.8333H3.73378C2.6295 28.8333 2.07736 28.8333 1.6759 28.5296C1.36332 28.2932 1.10688 27.8143 1.08339 27.4231C1.05324 26.9207 1.31519 26.5274 1.83909 25.7408Z" stroke="black" stroke-width="2" stroke-linecap="round" stroke-linejoin="round"/>
</svg>
