<svg width="21" height="22" viewBox="0 0 21 22" fill="none" xmlns="http://www.w3.org/2000/svg">
<path d="M7.98244 18.3711L8.56689 19.6856C8.74063 20.0768 9.02417 20.4093 9.38311 20.6426C9.74206 20.8759 10.161 21.0001 10.5891 21C11.0172 21.0001 11.4362 20.8759 11.7951 20.6426C12.1541 20.4093 12.4376 20.0768 12.6113 19.6856L13.1958 18.3711C13.4038 17.9047 13.7538 17.5159 14.1958 17.26C14.6406 17.0034 15.1551 16.8941 15.6658 16.9478L17.0958 17.1C17.5214 17.145 17.951 17.0656 18.3325 16.8713C18.7139 16.6771 19.0308 16.3763 19.2447 16.0056C19.4588 15.635 19.5609 15.2103 19.5384 14.7829C19.5159 14.3555 19.3699 13.9438 19.118 13.5978L18.2713 12.4344C17.9699 12.0171 17.8088 11.5148 17.8113 11C17.8112 10.4866 17.9738 9.98635 18.2758 9.57111L19.1224 8.40778C19.3743 8.06175 19.5204 7.65007 19.5428 7.22267C19.5653 6.79528 19.4633 6.37054 19.2491 6C19.0352 5.62923 18.7183 5.32849 18.3369 5.13423C17.9555 4.93997 17.5259 4.86053 17.1002 4.90556L15.6702 5.05778C15.1596 5.11141 14.645 5.00212 14.2002 4.74556C13.7573 4.48825 13.4073 4.09736 13.2002 3.62889L12.6113 2.31444C12.4376 1.92317 12.1541 1.59072 11.7951 1.3574C11.4362 1.12408 11.0172 0.99993 10.5891 1C10.161 0.99993 9.74206 1.12408 9.38311 1.3574C9.02417 1.59072 8.74063 1.92317 8.56689 2.31444L7.98244 3.62889C7.77537 4.09736 7.42532 4.48825 6.98244 4.74556C6.53766 5.00212 6.02311 5.11141 5.51244 5.05778L4.078 4.90556C3.65233 4.86053 3.22274 4.93997 2.84132 5.13423C2.45989 5.32849 2.14302 5.62923 1.92911 6C1.71493 6.37054 1.61289 6.79528 1.63538 7.22267C1.65786 7.65007 1.8039 8.06175 2.05578 8.40778L2.90244 9.57111C3.20439 9.98635 3.36698 10.4866 3.36689 11C3.36698 11.5134 3.20439 12.0137 2.90244 12.4289L2.05578 13.5922C1.8039 13.9382 1.65786 14.3499 1.63538 14.7773C1.61289 15.2047 1.71493 15.6295 1.92911 16C2.14323 16.3706 2.46014 16.6712 2.84151 16.8654C3.22288 17.0596 3.65236 17.1392 4.078 17.0944L5.508 16.9422C6.01867 16.8886 6.53322 16.9979 6.978 17.2544C7.42253 17.511 7.77421 17.902 7.98244 18.3711Z" stroke="#C6F221" stroke-width="2" stroke-linecap="round" stroke-linejoin="round"/>
<path d="M10.5873 14C12.2442 14 13.5873 12.6569 13.5873 11C13.5873 9.34315 12.2442 8 10.5873 8C8.93047 8 7.58732 9.34315 7.58732 11C7.58732 12.6569 8.93047 14 10.5873 14Z" stroke="#C6F221" stroke-width="2" stroke-linecap="round" stroke-linejoin="round"/>
</svg>
