<svg width="16" height="15" viewBox="0 0 16 15" fill="none" xmlns="http://www.w3.org/2000/svg">
<path d="M11.9182 12.3933C10.7792 13.2208 9.40748 13.6665 7.99962 13.6665C6.59176 13.6665 5.22003 13.2208 4.08105 12.3933M10.9221 1.00788C12.1875 1.62504 13.225 2.62696 13.8859 3.87003C14.5469 5.11309 14.7973 6.5335 14.6014 7.92766M1.39789 7.92759C1.20196 6.53343 1.45241 5.11303 2.11336 3.86996C2.77432 2.62689 3.81183 1.62498 5.07721 1.00781M7.62249 3.37696L4.37674 6.62271C4.24473 6.75472 4.17873 6.82072 4.154 6.89683C4.13225 6.96378 4.13225 7.0359 4.154 7.10284C4.17873 7.17895 4.24473 7.24496 4.37674 7.37696L7.62249 10.6227C7.7545 10.7547 7.8205 10.8207 7.89661 10.8455C7.96356 10.8672 8.03567 10.8672 8.10262 10.8455C8.17873 10.8207 8.24473 10.7547 8.37674 10.6227L11.6225 7.37696C11.7545 7.24496 11.8205 7.17895 11.8452 7.10284C11.867 7.0359 11.867 6.96378 11.8452 6.89683C11.8205 6.82072 11.7545 6.75472 11.6225 6.62272L8.37674 3.37696C8.24473 3.24496 8.17873 3.17895 8.10262 3.15422C8.03567 3.13247 7.96356 3.13247 7.89661 3.15422C7.8205 3.17895 7.7545 3.24496 7.62249 3.37696Z" stroke="#0C111D" stroke-width="1.66667" stroke-linecap="round" stroke-linejoin="round"/>
</svg>
