<svg width="16" height="16" viewBox="0 0 16 16" fill="none" xmlns="http://www.w3.org/2000/svg">
<path d="M5.3335 5.33301H5.34016M1.3335 3.46634L1.3335 6.44935C1.3335 6.77547 1.3335 6.93853 1.37034 7.09198C1.403 7.22803 1.45687 7.35809 1.52998 7.47739C1.61243 7.61194 1.72773 7.72724 1.95833 7.95785L7.07075 13.0703C7.86279 13.8623 8.2588 14.2583 8.71546 14.4067C9.11715 14.5372 9.54984 14.5372 9.95153 14.4067C10.4082 14.2583 10.8042 13.8623 11.5962 13.0703L13.0708 11.5957C13.8628 10.8037 14.2588 10.4077 14.4072 9.95104C14.5377 9.54935 14.5377 9.11666 14.4072 8.71497C14.2588 8.25832 13.8628 7.8623 13.0708 7.07026L7.95833 1.95785C7.72773 1.72724 7.61243 1.61194 7.47787 1.52949C7.35858 1.45638 7.22852 1.40251 7.09247 1.36985C6.93902 1.33301 6.77596 1.33301 6.44984 1.33301L3.46683 1.33301C2.72009 1.33301 2.34672 1.33301 2.06151 1.47833C1.81063 1.60616 1.60665 1.81014 1.47882 2.06102C1.3335 2.34624 1.3335 2.7196 1.3335 3.46634ZM5.66683 5.33301C5.66683 5.5171 5.51759 5.66634 5.3335 5.66634C5.1494 5.66634 5.00016 5.5171 5.00016 5.33301C5.00016 5.14891 5.1494 4.99967 5.3335 4.99967C5.51759 4.99967 5.66683 5.14891 5.66683 5.33301Z" stroke="#0C111D" stroke-width="1.66667" stroke-linecap="round" stroke-linejoin="round"/>
</svg>
