<svg width="23" height="20" viewBox="0 0 23 20" fill="none" xmlns="http://www.w3.org/2000/svg">
<path d="M21.5874 15V11C21.5874 5.47715 17.1103 1 11.5874 1C6.06456 1 1.5874 5.47715 1.5874 11V15M7.0874 19C5.70669 19 4.5874 17.8807 4.5874 16.5V13.5C4.5874 12.1193 5.70669 11 7.0874 11C8.46811 11 9.5874 12.1193 9.5874 13.5V16.5C9.5874 17.8807 8.46811 19 7.0874 19ZM16.0874 19C14.7067 19 13.5874 17.8807 13.5874 16.5V13.5C13.5874 12.1193 14.7067 11 16.0874 11C17.4681 11 18.5874 12.1193 18.5874 13.5V16.5C18.5874 17.8807 17.4681 19 16.0874 19Z" stroke="#C6F221" stroke-width="2" stroke-linecap="round" stroke-linejoin="round"/>
</svg>
