<svg width="16" height="16" viewBox="0 0 16 16" fill="none" xmlns="http://www.w3.org/2000/svg">
<path d="M1.33301 1.33301L2.66634 2.66634M14.6663 1.33301L13.333 2.66634M14.6663 14.6663L13.333 13.333M1.33301 14.6663L2.66634 13.333M1.33301 10.6663H2.33301M5.33301 1.33301V2.33301M14.6663 5.33301H13.6663M10.6663 14.6663V13.6663M11.9997 10.6663H14.333M10.6663 1.33301V3.99967M1.33301 5.33301H3.99967M5.33301 14.6663V11.9997M10.6663 7.99967C10.6663 9.47243 9.47243 10.6663 7.99967 10.6663C6.52692 10.6663 5.33301 9.47243 5.33301 7.99967C5.33301 6.52692 6.52692 5.33301 7.99967 5.33301C9.47243 5.33301 10.6663 6.52692 10.6663 7.99967Z" stroke="#0C111D" stroke-width="1.66667" stroke-linecap="round" stroke-linejoin="round"/>
</svg>
