<svg width="21" height="20" viewBox="0 0 21 20" fill="none" xmlns="http://www.w3.org/2000/svg">
<path d="M15.0874 12H15.0974M1.5874 3V17C1.5874 18.1046 2.48283 19 3.5874 19H17.5874C18.692 19 19.5874 18.1046 19.5874 17V7C19.5874 5.89543 18.692 5 17.5874 5L3.5874 5C2.48283 5 1.5874 4.10457 1.5874 3ZM1.5874 3C1.5874 1.89543 2.48283 1 3.5874 1H15.5874M15.5874 12C15.5874 12.2761 15.3635 12.5 15.0874 12.5C14.8113 12.5 14.5874 12.2761 14.5874 12C14.5874 11.7239 14.8113 11.5 15.0874 11.5C15.3635 11.5 15.5874 11.7239 15.5874 12Z" stroke="#C6F221" stroke-width="2" stroke-linecap="round" stroke-linejoin="round"/>
</svg>
