<svg width="40" height="28" viewBox="0 0 40 28" fill="none" xmlns="http://www.w3.org/2000/svg">
<path d="M32.6915 4.20877H13.0024L9.82529 0H6.51775C2.91729 0 -0.00166321 2.91262 -0.00166321 6.50528V17.2856C-0.00166321 20.8782 2.91729 23.7908 6.51775 23.7908H26.2068L29.3839 27.9996H32.6915C36.2919 27.9996 39.2109 25.087 39.2109 21.4943V10.714C39.2109 7.12139 36.2919 4.20877 32.6915 4.20877ZM34.0166 20.7262C34.0166 21.8918 33.0695 22.8365 31.9018 22.8365H27.0832L23.8928 18.6277H7.30743C6.13931 18.6277 5.19262 17.6827 5.19262 16.5175V7.27377C5.19262 6.10817 6.13931 5.16354 7.30743 5.16354H12.126L15.3164 9.3723H31.9018C33.0699 9.3723 34.0166 10.3173 34.0166 11.4825V20.7262Z" fill="#C6F221"/>
</svg>
