<svg width="14" height="14" viewBox="0 0 14 14" fill="none" xmlns="http://www.w3.org/2000/svg">
<path d="M13 1H1M13 13H1M2.33333 7C2.33333 6.37874 2.33333 6.06812 2.43483 5.82309C2.57015 5.49638 2.82972 5.23682 3.15642 5.10149C3.40145 5 3.71208 5 4.33333 5L9.66667 5C10.2879 5 10.5986 5 10.8436 5.10149C11.1703 5.23682 11.4298 5.49639 11.5652 5.82309C11.6667 6.06812 11.6667 6.37874 11.6667 7C11.6667 7.62126 11.6667 7.93188 11.5652 8.17691C11.4298 8.50362 11.1703 8.76318 10.8436 8.89851C10.5985 9 10.2879 9 9.66667 9L4.33333 9C3.71208 9 3.40145 9 3.15642 8.89851C2.82972 8.76318 2.57015 8.50361 2.43483 8.17691C2.33333 7.93188 2.33333 7.62126 2.33333 7Z" stroke="#475467" stroke-width="2" stroke-linecap="round" stroke-linejoin="round"/>
</svg>
