<svg width="21" height="21" viewBox="0 0 21 21" fill="none" xmlns="http://www.w3.org/2000/svg">
<path d="M6.5874 16H14.5874M9.6051 1.764L2.82279 7.03912C2.36942 7.39175 2.14274 7.56806 1.97943 7.78886C1.83477 7.98444 1.727 8.20478 1.66143 8.43905C1.5874 8.70352 1.5874 8.9907 1.5874 9.56505V16.8C1.5874 17.9201 1.5874 18.4801 1.80539 18.908C1.99714 19.2843 2.3031 19.5903 2.67942 19.782C3.10724 20 3.6673 20 4.7874 20H16.3874C17.5075 20 18.0676 20 18.4954 19.782C18.8717 19.5903 19.1777 19.2843 19.3694 18.908C19.5874 18.4801 19.5874 17.9201 19.5874 16.8V9.56505C19.5874 8.9907 19.5874 8.70352 19.5134 8.43905C19.4478 8.20478 19.34 7.98444 19.1954 7.78886C19.0321 7.56806 18.8054 7.39175 18.352 7.03913L11.5697 1.764C11.2184 1.49075 11.0427 1.35412 10.8487 1.3016C10.6776 1.25526 10.4972 1.25526 10.3261 1.3016C10.1321 1.35412 9.95642 1.49075 9.6051 1.764Z" stroke="white" stroke-width="2" stroke-linecap="round" stroke-linejoin="round"/>
</svg>
