<svg width="23" height="22" viewBox="0 0 23 22" fill="none" xmlns="http://www.w3.org/2000/svg">
<path d="M5.5874 5L7.5874 3M7.5874 3L5.5874 1M7.5874 3H5.5874C3.37826 3 1.5874 4.79086 1.5874 7M17.5874 17L15.5874 19M15.5874 19L17.5874 21M15.5874 19H17.5874C19.7965 19 21.5874 17.2091 21.5874 15M9.77643 5.5C10.4425 2.91216 12.7916 1 15.5874 1C18.9011 1 21.5874 3.68629 21.5874 7C21.5874 9.79574 19.6753 12.1449 17.0875 12.811M13.5874 15C13.5874 18.3137 10.9011 21 7.5874 21C4.27369 21 1.5874 18.3137 1.5874 15C1.5874 11.6863 4.27369 9 7.5874 9C10.9011 9 13.5874 11.6863 13.5874 15Z" stroke="white" stroke-width="2" stroke-linecap="round" stroke-linejoin="round"/>
</svg>
