<svg width="33" height="27" viewBox="0 0 33 27" fill="none" xmlns="http://www.w3.org/2000/svg">
<path d="M31.6665 10.5V6.3C31.6665 4.61984 31.6665 3.77976 31.3395 3.13803C31.0519 2.57354 30.593 2.1146 30.0285 1.82698C29.3867 1.5 28.5467 1.5 26.8665 1.5H6.4665C4.78635 1.5 3.94627 1.5 3.30453 1.82698C2.74005 2.1146 2.2811 2.57354 1.99348 3.13803C1.6665 3.77976 1.6665 4.61984 1.6665 6.3V11.7C1.6665 13.3802 1.6665 14.2202 1.99348 14.862C2.2811 15.4265 2.74005 15.8854 3.30453 16.173C3.94627 16.5 4.78635 16.5 6.4665 16.5H15.1665M16.6665 9H16.674M24.1665 9H24.174M9.1665 9H9.174M27.5415 19.5V16.875C27.5415 15.4253 26.3663 14.25 24.9165 14.25C23.4668 14.25 22.2915 15.4253 22.2915 16.875V19.5M17.0415 9C17.0415 9.20711 16.8736 9.375 16.6665 9.375C16.4594 9.375 16.2915 9.20711 16.2915 9C16.2915 8.79289 16.4594 8.625 16.6665 8.625C16.8736 8.625 17.0415 8.79289 17.0415 9ZM24.5415 9C24.5415 9.20711 24.3736 9.375 24.1665 9.375C23.9594 9.375 23.7915 9.20711 23.7915 9C23.7915 8.79289 23.9594 8.625 24.1665 8.625C24.3736 8.625 24.5415 8.79289 24.5415 9ZM9.5415 9C9.5415 9.20711 9.37361 9.375 9.1665 9.375C8.9594 9.375 8.7915 9.20711 8.7915 9C8.7915 8.79289 8.9594 8.625 9.1665 8.625C9.37361 8.625 9.5415 8.79289 9.5415 9ZM22.0665 25.5H27.7665C28.6066 25.5 29.0266 25.5 29.3475 25.3365C29.6297 25.1927 29.8592 24.9632 30.003 24.681C30.1665 24.3601 30.1665 23.9401 30.1665 23.1V21.9C30.1665 21.0599 30.1665 20.6399 30.003 20.319C29.8592 20.0368 29.6297 19.8073 29.3475 19.6635C29.0266 19.5 28.6066 19.5 27.7665 19.5H22.0665C21.2264 19.5 20.8064 19.5 20.4855 19.6635C20.2033 19.8073 19.9738 20.0368 19.83 20.319C19.6665 20.6399 19.6665 21.0599 19.6665 21.9V23.1C19.6665 23.9401 19.6665 24.3601 19.83 24.681C19.9738 24.9632 20.2033 25.1927 20.4855 25.3365C20.8064 25.5 21.2264 25.5 22.0665 25.5Z" stroke="black" stroke-width="2" stroke-linecap="round" stroke-linejoin="round"/>
</svg>
