<svg width="30" height="31" viewBox="0 0 30 31" fill="none" xmlns="http://www.w3.org/2000/svg">
<path d="M21 9.99999V4.75097C21 3.50336 21 2.87956 20.7372 2.4962C20.5076 2.16126 20.152 1.93373 19.7516 1.86561C19.2934 1.78763 18.727 2.04905 17.5943 2.57187L4.28852 8.71297C3.27826 9.17925 2.77313 9.41239 2.40316 9.77396C2.07609 10.0936 1.82643 10.4838 1.67326 10.9147C1.5 11.4022 1.5 11.9585 1.5 13.0712V20.5M21.75 19.75H21.765M1.5 14.8L1.5 24.7C1.5 26.3801 1.5 27.2202 1.82698 27.862C2.1146 28.4264 2.57354 28.8854 3.13803 29.173C3.77976 29.5 4.61984 29.5 6.3 29.5H23.7C25.3802 29.5 26.2202 29.5 26.862 29.173C27.4265 28.8854 27.8854 28.4264 28.173 27.862C28.5 27.2202 28.5 26.3801 28.5 24.7V14.8C28.5 13.1198 28.5 12.2798 28.173 11.638C27.8854 11.0735 27.4265 10.6146 26.862 10.327C26.2202 9.99999 25.3802 9.99999 23.7 9.99999L6.3 9.99999C4.61984 9.99999 3.77976 9.99999 3.13803 10.327C2.57354 10.6146 2.1146 11.0735 1.82698 11.638C1.5 12.2797 1.5 13.1198 1.5 14.8ZM22.5 19.75C22.5 20.1642 22.1642 20.5 21.75 20.5C21.3358 20.5 21 20.1642 21 19.75C21 19.3358 21.3358 19 21.75 19C22.1642 19 22.5 19.3358 22.5 19.75Z" stroke="#067647" stroke-width="2" stroke-linecap="round" stroke-linejoin="round"/>
</svg>
