<svg width="19" height="15" viewBox="0 0 19 15" fill="none" xmlns="http://www.w3.org/2000/svg">
<path d="M18.0312 1.06246C18.0167 0.915024 17.9503 0.777531 17.8438 0.674506C17.7373 0.57148 17.5977 0.509621 17.4499 0.499962C12.1999 0.187462 7.61865 2.71246 6.51865 6.48121C6.0625 8.25394 6.28542 10.1332 7.14365 11.75C6.43138 12.2972 5.64417 12.7392 4.80615 13.0625C3.67764 13.4809 2.47755 13.672 1.2749 13.625C1.10914 13.625 0.950171 13.6908 0.832961 13.808C0.71575 13.9252 0.649902 14.0842 0.649902 14.25C0.649902 14.4157 0.71575 14.5747 0.832961 14.6919C0.950171 14.8091 1.10914 14.875 1.2749 14.875H1.5624C4.08704 14.872 6.5267 13.9626 8.4374 12.3125C8.85244 12.3596 9.2697 12.3847 9.6874 12.3875C11.7981 12.4494 13.8527 11.7026 15.4312 10.3C17.8499 8.03121 18.0312 4.78746 18.1124 3.42496C18.1631 2.63671 18.1358 1.84538 18.0312 1.06246ZM16.8999 3.35621C16.8312 4.60621 16.6687 7.49371 14.6187 9.41871C13.191 10.6459 11.3416 11.2691 9.4624 11.1562L10.8374 9.43746L13.9124 8.81246C14.071 8.77921 14.2104 8.68568 14.3014 8.55159C14.3923 8.41751 14.4277 8.25334 14.3999 8.09371C14.3667 7.93256 14.2713 7.79099 14.1344 7.69973C13.9975 7.60846 13.8302 7.57486 13.6687 7.60621L12.0437 7.92496L13.6499 5.91871C13.7043 5.85505 13.7453 5.78111 13.7705 5.70128C13.7958 5.62146 13.8047 5.53738 13.7968 5.45403C13.7889 5.37068 13.7644 5.28977 13.7247 5.21609C13.6849 5.14241 13.6308 5.07747 13.5654 5.02512C13.5001 4.97277 13.4249 4.93408 13.3443 4.91134C13.2638 4.88861 13.1794 4.88229 13.0964 4.89277C13.0133 4.90325 12.9332 4.93031 12.8608 4.97234C12.7884 5.01438 12.7252 5.07053 12.6749 5.13746L11.8999 6.08746V4.24996C11.8999 4.0842 11.8341 3.92523 11.7168 3.80802C11.5996 3.69081 11.4407 3.62496 11.2749 3.62496C11.1091 3.62496 10.9502 3.69081 10.833 3.80802C10.7157 3.92523 10.6499 4.0842 10.6499 4.24996V7.64996L9.80615 8.70621L9.3999 6.62496C9.38349 6.54289 9.35107 6.46485 9.30449 6.3953C9.25792 6.32575 9.1981 6.26606 9.12846 6.21963C9.05881 6.1732 8.9807 6.14095 8.89859 6.1247C8.81648 6.10846 8.73198 6.10855 8.6499 6.12496C8.56783 6.14138 8.48979 6.1738 8.42024 6.22037C8.35069 6.26695 8.291 6.32676 8.24457 6.39641C8.19814 6.46605 8.16589 6.54416 8.14964 6.62627C8.1334 6.70838 8.13349 6.79289 8.1499 6.87496L8.7749 9.99996L8.09365 10.8562C7.50897 9.61343 7.37421 8.20612 7.7124 6.87496C8.5999 3.82496 12.2624 1.74996 16.5812 1.74996H16.8562C16.9113 2.28351 16.9259 2.82046 16.8999 3.35621Z" fill="#0C111D"/>
</svg>
