<svg width="19" height="18" viewBox="0 0 19 18" fill="none" xmlns="http://www.w3.org/2000/svg">
<path d="M17.7251 16.5001H16.8376L12.0188 8.06255C11.9638 7.96717 11.8845 7.88804 11.789 7.83316C11.6935 7.77829 11.5852 7.74961 11.4751 7.75005V6.50005H12.9438C13.3252 6.49965 13.7024 6.42063 14.0519 6.26793C14.4014 6.11523 14.7157 5.89213 14.9751 5.61255C15.2158 5.35789 15.4003 5.05548 15.5166 4.72493C15.6328 4.39438 15.6783 4.04307 15.6501 3.6938C15.6151 3.17127 15.3932 2.67878 15.0251 2.3063C14.6699 1.99878 14.2353 1.79756 13.771 1.72571C13.3067 1.65386 12.8316 1.71428 12.4001 1.90005C12.1198 1.4005 11.7115 0.984628 11.2172 0.695184C10.7229 0.40574 10.1604 0.253174 9.5876 0.253174C9.01478 0.253174 8.45231 0.40574 7.958 0.695184C7.46369 0.984628 7.0554 1.4005 6.7751 1.90005C6.34358 1.71428 5.86846 1.65386 5.40418 1.72571C4.9399 1.79756 4.50527 1.99878 4.1501 2.3063C3.78289 2.67941 3.5612 3.17154 3.5251 3.6938C3.50014 4.04488 3.54959 4.39727 3.67021 4.72792C3.79084 5.05857 3.97993 5.36002 4.2251 5.61255C4.48451 5.89213 4.79877 6.11523 5.14826 6.26793C5.49775 6.42063 5.87496 6.49965 6.25635 6.50005H7.7251V7.75005C7.61497 7.74961 7.50668 7.77829 7.41119 7.83316C7.3157 7.88804 7.23641 7.96717 7.18135 8.06255L2.3626 16.5001H1.4751C1.30934 16.5001 1.15037 16.5659 1.03316 16.6831C0.915946 16.8003 0.850098 16.9593 0.850098 17.1251C0.850098 17.2908 0.915946 17.4498 1.03316 17.567C1.15037 17.6842 1.30934 17.7501 1.4751 17.7501H17.7251C17.8909 17.7501 18.0498 17.6842 18.167 17.567C18.2843 17.4498 18.3501 17.2908 18.3501 17.1251C18.3501 16.9593 18.2843 16.8003 18.167 16.6831C18.0498 16.5659 17.8909 16.5001 17.7251 16.5001ZM11.8438 10.2501C11.3922 10.3123 10.9787 10.5371 10.6808 10.8822C10.3828 11.2273 10.2208 11.6691 10.2251 12.1251C10.2251 12.2908 10.1593 12.4498 10.042 12.567C9.92483 12.6842 9.76586 12.7501 9.6001 12.7501C9.43434 12.7501 9.27537 12.6842 9.15816 12.567C9.04095 12.4498 8.9751 12.2908 8.9751 12.1251C8.97937 11.6691 8.81738 11.2273 8.51944 10.8822C8.22149 10.5371 7.808 10.3123 7.35635 10.2501L8.0876 9.00005H11.1126L11.8438 10.2501ZM5.14385 4.76255C5.02115 4.63467 4.92705 4.48217 4.86778 4.31515C4.80852 4.14813 4.78545 3.97042 4.8001 3.7938C4.80148 3.56368 4.8858 3.34177 5.0376 3.1688C5.23555 3.00065 5.49085 2.91555 5.7501 2.9313C6.10959 2.93612 6.45965 3.04701 6.75635 3.25005C6.83709 3.30933 6.93089 3.34833 7.02986 3.36377C7.12882 3.37922 7.23005 3.37065 7.32501 3.33879C7.41997 3.30693 7.50588 3.25272 7.57551 3.18072C7.64514 3.10871 7.69644 3.02103 7.7251 2.92505C7.84626 2.51511 8.09676 2.15535 8.43919 1.89949C8.78162 1.64362 9.19763 1.50536 9.6251 1.50536C10.0526 1.50536 10.4686 1.64362 10.811 1.89949C11.1534 2.15535 11.4039 2.51511 11.5251 2.92505C11.5521 3.01921 11.6009 3.10569 11.6675 3.17752C11.7341 3.24936 11.8167 3.30453 11.9085 3.33859C12.0004 3.37265 12.0989 3.38465 12.1963 3.37361C12.2936 3.36257 12.387 3.32881 12.4688 3.27505C12.7108 3.08336 13.0068 2.97241 13.3151 2.95784C13.6235 2.94326 13.9286 3.02579 14.1876 3.1938C14.3394 3.36677 14.4237 3.58868 14.4251 3.8188C14.4397 3.99542 14.4167 4.17313 14.3574 4.34015C14.2981 4.50717 14.204 4.65967 14.0813 4.78755C13.9404 4.9422 13.7685 5.0655 13.5769 5.14948C13.3852 5.23346 13.1781 5.27624 12.9688 5.27505H6.25635C6.04522 5.2731 5.83691 5.22642 5.64515 5.13808C5.45339 5.04974 5.28253 4.92175 5.14385 4.76255ZM8.9751 6.50005H10.2251V7.75005H8.9751V6.50005ZM3.8001 16.5001L6.65635 11.5001H7.1001C7.26586 11.5001 7.42483 11.5659 7.54204 11.6831C7.65925 11.8003 7.7251 11.9593 7.7251 12.1251C7.7251 12.6223 7.92264 13.0992 8.27427 13.4509C8.6259 13.8025 9.10282 14.0001 9.6001 14.0001C10.0974 14.0001 10.5743 13.8025 10.9259 13.4509C11.2776 13.0992 11.4751 12.6223 11.4751 12.1251C11.4751 11.9593 11.5409 11.8003 11.6582 11.6831C11.7754 11.5659 11.9343 11.5001 12.1001 11.5001H12.5438L15.4001 16.5001H3.8001Z" fill="#0C111D"/>
</svg>
