<svg width="18" height="14" viewBox="0 0 18 14" fill="none" xmlns="http://www.w3.org/2000/svg">
<path d="M16.2998 12C16.2998 12 15.3078 11.6087 14.6331 11.4183C10.3662 10.2145 7.23338 13.7855 2.96647 12.5816C2.29181 12.3912 1.2998 12 1.2998 12M16.2998 6.99996C16.2998 6.99996 15.3078 6.60869 14.6331 6.41834C10.3662 5.21445 7.23338 8.78546 2.96647 7.58158C2.29181 7.39122 1.2998 6.99996 1.2998 6.99996M16.2998 1.99996C16.2998 1.99996 15.3078 1.60869 14.6331 1.41834C10.3662 0.214454 7.23338 3.78547 2.96647 2.58158C2.29181 2.39122 1.2998 1.99996 1.2998 1.99996" stroke="#0C111D" stroke-width="1.6" stroke-linecap="round" stroke-linejoin="round"/>
</svg>
