<svg width="18" height="18" viewBox="0 0 18 18" fill="none" xmlns="http://www.w3.org/2000/svg">
<path d="M9.46667 4.06671C10.0398 3.15098 10.4461 2.14091 10.6667 1.08337C11.0833 3.16671 12.3333 5.16671 14 6.50004C15.6667 7.83337 16.5 9.41671 16.5 11.0834C16.5048 12.2353 16.1674 13.3627 15.5307 14.3226C14.8939 15.2826 13.9865 16.0318 12.9234 16.4754C11.8604 16.9191 10.6895 17.037 9.55931 16.8144C8.42911 16.5918 7.39044 16.0387 6.575 15.225M4.83333 12.15C6.66667 12.15 8.16667 10.625 8.16667 8.77504C8.16667 7.80837 7.69167 6.89171 6.74167 6.11671C5.79167 5.34171 5.075 4.19171 4.83333 2.98337C4.59167 4.19171 3.88333 5.35004 2.925 6.11671C1.96667 6.88337 1.5 7.81671 1.5 8.77504C1.5 10.625 3 12.15 4.83333 12.15Z" stroke="#0C111D" stroke-width="1.6" stroke-linecap="round" stroke-linejoin="round"/>
</svg>
