<svg width="19" height="20" viewBox="0 0 19 20" fill="none" xmlns="http://www.w3.org/2000/svg">
<path d="M0.866699 9.99992L2.53337 9.99992M15.8667 9.99992L17.5334 9.99992M9.20003 16.6666L9.20003 18.3333M4.4618 14.7382L3.28328 15.9167M4.4618 5.26168L3.28328 4.08317M13.9417 14.7382L15.1202 15.9167M13.9417 5.26168L15.1202 4.08317M9.20003 1.66658L9.20003 3.33325M9.20003 5.83325C11.5012 5.83325 13.3667 7.69873 13.3667 9.99992C13.3667 12.3011 11.5012 14.1666 9.20003 14.1666C6.89885 14.1666 5.03337 12.3011 5.03337 9.99992C5.03337 7.69873 6.89885 5.83325 9.20003 5.83325Z" stroke="#0C111D" stroke-width="1.6" stroke-linecap="round" stroke-linejoin="round"/>
</svg>
