<svg width="20" height="20" viewBox="0 0 20 20" fill="none" xmlns="http://www.w3.org/2000/svg">
<path d="M7.92424 3.88893C8.22942 3.54796 8.67291 3.33337 9.16652 3.33337C10.087 3.33337 10.8332 4.07957 10.8332 5.00004C10.8332 5.92052 10.087 6.66671 9.16652 6.66671H1.66652M10.4242 16.1112C10.7294 16.4521 11.1729 16.6667 11.6665 16.6667C12.587 16.6667 13.3332 15.9205 13.3332 15C13.3332 14.0796 12.587 13.3334 11.6665 13.3334H1.66652M13.9698 5.83337C14.4275 5.32192 15.0928 5.00004 15.8332 5.00004C17.2139 5.00004 18.3332 6.11933 18.3332 7.50004C18.3332 8.88075 17.2139 10 15.8332 10H1.6665" stroke="#0C111D" stroke-width="1.6" stroke-linecap="round" stroke-linejoin="round"/>
</svg>
