<svg width="172" height="28" viewBox="0 0 172 28" fill="none" xmlns="http://www.w3.org/2000/svg">
<g clip-path="url(#clip0_937_9547)">
<path d="M32.6917 4.20877H13.0026L9.82549 0H6.51794C2.91749 0 -0.00146484 2.91262 -0.00146484 6.50528V17.2856C-0.00146484 20.8782 2.91749 23.7908 6.51794 23.7908H26.207L29.3841 27.9996H32.6917C36.2921 27.9996 39.2111 25.087 39.2111 21.4943V10.714C39.2111 7.12139 36.2921 4.20877 32.6917 4.20877ZM34.0168 20.7262C34.0168 21.8918 33.0697 22.8365 31.902 22.8365H27.0834L23.893 18.6277H7.30763C6.1395 18.6277 5.19282 17.6827 5.19282 16.5175V7.27377C5.19282 6.10817 6.1395 5.16354 7.30763 5.16354H12.1262L15.3166 9.3723H31.902C33.0701 9.3723 34.0168 10.3173 34.0168 11.4825V20.7262Z" fill="#C6F221"/>
</g>
<path d="M57.9287 22.7241C56.167 22.7241 54.6318 22.3679 53.3232 21.6555C52.0145 20.9265 51.0078 19.891 50.3031 18.549C49.5984 17.207 49.2461 15.6414 49.2461 13.8521C49.2461 12.1124 49.5984 10.5716 50.3031 9.22963C51.0246 7.88764 52.0312 6.84386 53.3232 6.09831C54.6318 5.35276 56.1251 4.97998 57.8029 4.97998C59.7827 4.97998 61.4353 5.51015 62.7608 6.57049C64.1031 7.61427 65.0091 9.05567 65.4789 10.8947L62.0058 11.6651C61.687 10.4888 61.1669 9.56927 60.4454 8.90656C59.724 8.22728 58.818 7.88764 57.7274 7.88764C56.771 7.88764 55.9238 8.12787 55.1855 8.60834C54.4473 9.0888 53.8768 9.76809 53.4742 10.6462C53.0715 11.5243 52.8702 12.5349 52.8702 13.6781C52.8702 15.5503 53.3232 17.0414 54.2292 18.1514C55.152 19.2615 56.4019 19.8165 57.9791 19.8165C59.0361 19.8165 59.9421 19.51 60.6971 18.897C61.4521 18.2674 61.9471 17.3727 62.182 16.213L65.6047 17.0331C65.1517 18.723 64.2373 20.0981 62.8615 21.1585C61.5025 22.2022 59.8582 22.7241 57.9287 22.7241Z" fill="white"/>
<path d="M72.9163 22.6993C71.6244 22.6993 70.4835 22.4342 69.4936 21.904C68.5205 21.3739 67.7655 20.6366 67.2286 19.6922C66.6917 18.7479 66.4232 17.6627 66.4232 16.4366C66.4232 15.2106 66.6833 14.0923 67.2034 13.0817C67.7235 12.0544 68.4701 11.2426 69.4433 10.6462C70.4332 10.0497 71.5825 9.75152 72.8911 9.75152C74.0824 9.75152 75.131 10.0083 76.037 10.5219C76.9598 11.0355 77.6729 11.7479 78.1762 12.6592C78.6796 13.5704 78.9312 14.5976 78.9312 15.7408C78.9312 16.1716 78.9061 16.536 78.8557 16.8343H69.8963C69.9802 17.9112 70.3073 18.7396 70.8778 19.3194C71.4482 19.8993 72.1781 20.1893 73.0673 20.1893C73.7888 20.1893 74.3592 19.9987 74.7787 19.6177C75.1981 19.22 75.5337 18.7064 75.7854 18.0769L78.9312 18.7727C78.5621 19.9325 77.8575 20.8768 76.8172 21.6058C75.7938 22.3348 74.4935 22.6993 72.9163 22.6993ZM75.4582 14.7716C75.3575 14.026 75.0723 13.4296 74.6025 12.9822C74.1495 12.5183 73.5539 12.2864 72.8157 12.2864C72.1278 12.2864 71.5405 12.5101 71.054 12.9574C70.5674 13.3882 70.2318 13.9929 70.0473 14.7716H75.4582Z" fill="white"/>
<path d="M80.8437 9.92548H84.2916V13.8024C84.6775 12.5598 85.2396 11.574 85.9778 10.845C86.7161 10.116 87.6221 9.75152 88.6959 9.75152H88.7462V13.0817C87.2026 13.0817 86.0701 13.4379 85.3487 14.1503C84.644 14.8627 84.2916 16.1136 84.2916 17.9029V22.5502H80.8437V9.92548Z" fill="white"/>
<path d="M95.848 22.7241C94.6065 22.7241 93.4823 22.4591 92.4757 21.9289C91.4858 21.3821 90.7056 20.62 90.1351 19.6425C89.5814 18.665 89.3046 17.5301 89.3046 16.2378C89.3046 14.9621 89.5814 13.8355 90.1351 12.858C90.7056 11.8639 91.4858 11.1018 92.4757 10.5716C93.4823 10.0249 94.6065 9.75152 95.848 9.75152C97.1064 9.75152 98.2305 10.0249 99.2204 10.5716C100.21 11.1018 100.991 11.8639 101.561 12.858C102.131 13.8355 102.417 14.9621 102.417 16.2378C102.417 17.5301 102.131 18.665 101.561 19.6425C101.007 20.62 100.227 21.3821 99.2204 21.9289C98.2305 22.4591 97.1064 22.7241 95.848 22.7241ZM92.8532 16.2378C92.8532 17.497 93.1132 18.4579 93.6333 19.1206C94.1535 19.7668 94.8917 20.0899 95.848 20.0899C96.8044 20.0899 97.5426 19.7668 98.0628 19.1206C98.5996 18.4579 98.8681 17.497 98.8681 16.2378C98.8681 14.9952 98.5996 14.0426 98.0628 13.3799C97.5426 12.7172 96.8044 12.3858 95.848 12.3858C94.8917 12.3858 94.1535 12.7172 93.6333 13.3799C93.1132 14.0426 92.8532 14.9952 92.8532 16.2378Z" fill="white"/>
<path d="M114.295 7.88764H109.01V5.15394H123.103V7.88764H117.818V22.5502H114.295V7.88764Z" fill="white"/>
<path d="M122.478 9.92548H125.925V13.8024C126.311 12.5598 126.873 11.574 127.612 10.845C128.35 10.116 129.256 9.75152 130.33 9.75152H130.38V13.0817C128.836 13.0817 127.704 13.4379 126.982 14.1503C126.278 14.8627 125.925 16.1136 125.925 17.9029V22.5502H122.478V9.92548Z" fill="white"/>
<path d="M139.045 14.2C139.045 13.6367 138.86 13.1976 138.491 12.8828C138.139 12.5515 137.635 12.3858 136.981 12.3858C135.756 12.3858 134.867 12.9822 134.313 14.1751L131.218 13.4793C131.604 12.4024 132.317 11.516 133.357 10.8201C134.414 10.1077 135.697 9.75152 137.207 9.75152C138.852 9.75152 140.135 10.1409 141.058 10.9196C141.998 11.6982 142.467 12.8249 142.467 14.2994V22.5502H139.045V20.3135C138.575 21.0756 137.946 21.6721 137.157 22.1028C136.385 22.517 135.521 22.7241 134.565 22.7241C133.491 22.7241 132.585 22.4425 131.847 21.8792C131.109 21.2993 130.739 20.504 130.739 19.4934C130.739 18.3337 131.151 17.4638 131.973 16.884C132.812 16.3041 134.12 15.9313 135.899 15.7656C137.09 15.6662 137.912 15.5171 138.365 15.3183C138.818 15.1029 139.045 14.7302 139.045 14.2ZM134.364 19.0461C134.364 19.4768 134.523 19.8082 134.842 20.0401C135.177 20.2721 135.597 20.3881 136.1 20.3881C136.889 20.3881 137.576 20.0981 138.164 19.5183C138.751 18.9218 139.045 18.0354 139.045 16.8591V16.6852C138.608 17.0994 137.87 17.3644 136.83 17.4804C135.974 17.5633 135.345 17.7206 134.942 17.9526C134.556 18.168 134.364 18.5325 134.364 19.0461Z" fill="white"/>
<path d="M153.824 19.9407C153.455 20.8023 152.926 21.4815 152.238 21.9786C151.551 22.4756 150.712 22.7241 149.722 22.7241C148.665 22.7241 147.717 22.4591 146.878 21.9289C146.056 21.3987 145.401 20.6366 144.915 19.6425C144.445 18.6484 144.21 17.4887 144.21 16.1633C144.21 14.871 144.445 13.7444 144.915 12.7834C145.401 11.8059 146.047 11.0604 146.853 10.5468C147.675 10.0166 148.572 9.75152 149.546 9.75152C150.552 9.75152 151.416 10.0083 152.138 10.5219C152.859 11.0355 153.421 11.7562 153.824 12.684V5.15394H157.247V22.5502H153.824V19.9407ZM147.759 16.1633C147.759 17.3893 148.019 18.3585 148.539 19.0709C149.076 19.7833 149.789 20.1396 150.678 20.1396C151.634 20.1396 152.398 19.7916 152.968 19.0958C153.539 18.3999 153.824 17.4804 153.824 16.3372C153.824 15.1443 153.53 14.1834 152.943 13.4544C152.373 12.7089 151.618 12.3361 150.678 12.3361C149.789 12.3361 149.076 12.684 148.539 13.3799C148.019 14.0757 147.759 15.0035 147.759 16.1633Z" fill="white"/>
<path d="M165.572 22.6993C164.281 22.6993 163.14 22.4342 162.15 21.904C161.177 21.3739 160.422 20.6366 159.885 19.6922C159.348 18.7479 159.079 17.6627 159.079 16.4366C159.079 15.2106 159.339 14.0923 159.86 13.0817C160.38 12.0544 161.126 11.2426 162.099 10.6462C163.089 10.0497 164.239 9.75152 165.547 9.75152C166.739 9.75152 167.787 10.0083 168.693 10.5219C169.616 11.0355 170.329 11.7479 170.832 12.6592C171.336 13.5704 171.587 14.5976 171.587 15.7408C171.587 16.1716 171.562 16.536 171.512 16.8343H162.552C162.636 17.9112 162.963 18.7396 163.534 19.3194C164.104 19.8993 164.834 20.1893 165.723 20.1893C166.445 20.1893 167.015 19.9987 167.435 19.6177C167.854 19.22 168.19 18.7064 168.441 18.0769L171.587 18.7727C171.218 19.9325 170.514 20.8768 169.473 21.6058C168.45 22.3348 167.15 22.6993 165.572 22.6993ZM168.114 14.7716C168.014 14.026 167.728 13.4296 167.259 12.9822C166.806 12.5183 166.21 12.2864 165.472 12.2864C164.784 12.2864 164.197 12.5101 163.71 12.9574C163.224 13.3882 162.888 13.9929 162.703 14.7716H168.114Z" fill="white"/>
<defs>
<clipPath id="clip0_937_9547">
<rect width="39.2125" height="28" fill="white"/>
</clipPath>
</defs>
</svg>
